<?xml version="1.0" encoding="UTF-8"?>
<svg version="1.2" baseProfile="tiny-ps" xmlns="http://www.w3.org/2000/svg" viewBox="0 0 250 250" width="250" height="250">
<title>Tedport</title>
<g transform="translate(0, 40.5)" fill-rule="evenodd" clip-rule="evenodd">
<g><path style="opacity:1" fill="#194b7c" d="M 34.5,87.5 C 31.2024,89.4854 27.8691,91.4854 24.5,93.5C 24.5,93.1667 24.5,92.8333 24.5,92.5C 24.9234,91.7354 25.2568,90.9021 25.5,90C 24.0452,87.7522 23.2118,85.2522 23,82.5C 22.3333,80.5 21,79.1667 19,78.5C 17.6657,70.8001 18.6657,63.4668 22,56.5C 25.5662,53.3007 29.3996,50.4674 33.5,48C 39.0379,46.6544 44.3712,44.8211 49.5,42.5C 51.8345,41.6663 53.8345,40.3329 55.5,38.5C 57.1694,39.8897 58.8361,40.2231 60.5,39.5C 59.624,38.7492 58.624,38.2492 57.5,38C 59.4682,36.4558 61.6349,35.2891 64,34.5C 64.658,36.108 64.158,37.2747 62.5,38C 63.2266,39.3988 63.7266,40.8988 64,42.5C 66.1087,41.9647 66.6087,40.9647 65.5,39.5C 66.0253,38.8076 66.6919,38.3076 67.5,38C 66.1514,36.3646 66.3181,34.8646 68,33.5C 68.6667,34.1667 69.3333,34.8333 70,35.5C 70.2189,34.062 70.7189,32.7287 71.5,31.5C 74.1354,30.1891 76.4687,28.5224 78.5,26.5C 85.9922,22.2928 93.9922,20.6261 102.5,21.5C 101.895,23.4812 100.895,23.8146 99.5,22.5C 98.6919,22.8076 98.0253,23.3076 97.5,24C 98.5171,25.0495 98.6838,26.2161 98,27.5C 97.6667,26.8333 97.3333,26.1667 97,25.5C 95.5024,27.6138 93.6691,28.1138 91.5,27C 89.7741,27.9177 88.1074,29.4177 86.5,31.5C 87.6405,32.4255 87.6405,33.2588 86.5,34C 83.6583,35.3103 80.9916,36.1437 78.5,36.5C 77.8076,35.9747 77.3076,35.3081 77,34.5C 76.5503,36.519 75.717,38.3523 74.5,40C 69.5222,41.9865 64.6889,44.1532 60,46.5C 59.6667,45.5 59.3333,44.5 59,43.5C 58.2276,44.8491 57.0609,45.6824 55.5,46C 56.4581,47.1475 56.1247,48.1475 54.5,49C 50.4186,51.7355 46.0853,54.0688 41.5,56C 34.0044,64.0343 32.0044,73.3677 35.5,84C 35.3517,85.2559 35.0184,86.4226 34.5,87.5 Z"/></g>
<g><path style="opacity:1" fill="#257557" d="M 220.5,70.5 C 220.357,72.2624 220.691,73.9291 221.5,75.5C 221.145,76.5223 220.478,77.189 219.5,77.5C 220.036,74.3354 219.203,71.6688 217,69.5C 216.187,67.5643 215.687,65.5643 215.5,63.5C 214.5,63.5 213.5,63.5 212.5,63.5C 212.441,59.9541 211.608,56.6208 210,53.5C 205.601,45.7483 201.601,37.7483 198,29.5C 196.829,28.1068 195.329,27.2735 193.5,27C 192.833,25.6667 192.167,24.3333 191.5,23C 186.917,21.4648 182.25,20.7982 177.5,21C 179.081,21.7065 180.581,22.5399 182,23.5C 192.18,42.2367 201.68,61.2367 210.5,80.5C 211.5,80.5 212.5,80.5 213.5,80.5C 212.82,84.1411 213.154,87.8078 214.5,91.5C 214.323,103.838 208.323,111.672 196.5,115C 190.236,119.58 183.569,123.58 176.5,127C 174.324,127.163 172.491,127.996 171,129.5C 169.434,128.939 168.101,129.606 167,131.5C 165.493,130.465 163.993,130.632 162.5,132C 159.87,135.317 156.537,137.65 152.5,139C 147.224,140.3 142.224,141.8 137.5,143.5C 134.633,141.23 131.967,138.73 129.5,136C 129.833,135.667 130.167,135.333 130.5,135C 127.744,131.587 128.077,128.42 131.5,125.5C 136.197,123.637 140.531,121.137 144.5,118C 148.086,114.254 150.753,109.921 152.5,105C 152.833,104.833 153.167,104.667 153.5,104.5C 154.228,106.193 155.228,107.693 156.5,109C 158.18,109.034 159.68,109.201 161,109.5C 166.218,105.803 171.718,102.47 177.5,99.5C 178.298,99.0431 178.631,98.3764 178.5,97.5C 180.942,95.7742 183.609,94.2742 186.5,93C 187.022,92.4387 187.355,91.772 187.5,91C 182.524,81.0773 177.357,71.2439 172,61.5C 166.011,64.9116 159.844,67.9116 153.5,70.5C 152.402,69.603 152.402,68.7697 153.5,68C 159.645,64.2608 165.978,61.0941 172.5,58.5C 170.776,53.5739 167.443,51.4073 162.5,52C 145.669,59.2497 129.336,67.2497 113.5,76C 112.021,79.5722 109.354,81.4055 105.5,81.5C 105.517,84.5235 106.517,87.1901 108.5,89.5C 110.618,88.0541 112.951,87.3874 115.5,87.5C 112.821,90.1732 109.488,91.8399 105.5,92.5C 103.952,88.4023 102.119,84.4023 100,80.5C 98.9246,76.23 98.4246,71.8967 98.5,67.5C 98.5,66.8333 98.5,66.1667 98.5,65.5C 99.3382,65.1583 99.6716,64.4916 99.5,63.5C 99.8333,62.8333 100.167,62.1667 100.5,61.5C 100.5,61.1667 100.5,60.8333 100.5,60.5C 100.5,60.1667 100.5,59.8333 100.5,59.5C 101.167,59.5 101.5,59.1667 101.5,58.5C 101.5,58.1667 101.5,57.8333 101.5,57.5C 102.167,57.5 102.5,57.1667 102.5,56.5C 103.906,56.0269 104.573,55.0269 104.5,53.5C 105.167,53.5 105.5,53.1667 105.5,52.5C 105.833,52.5 106.167,52.5 106.5,52.5C 107.167,51.8333 107.833,51.1667 108.5,50.5C 109.167,50.5 109.5,50.1667 109.5,49.5C 110.167,49.5 110.5,49.1667 110.5,48.5C 111.492,48.6716 112.158,48.3382 112.5,47.5C 112.833,47.5 113.167,47.5 113.5,47.5C 114.167,47.5 114.5,47.1667 114.5,46.5C 115.609,46.4431 116.609,46.1098 117.5,45.5C 118.167,45.5 118.5,45.1667 118.5,44.5C 118.833,44.5 119.167,44.5 119.5,44.5C 120.167,44.5 120.5,44.1667 120.5,43.5C 120.833,43.5 121.167,43.5 121.5,43.5C 122.167,43.5 122.5,43.1667 122.5,42.5C 126.817,40.5303 131.15,38.5303 135.5,36.5C 135.783,37.2891 136.283,37.9558 137,38.5C 144.125,34.1538 151.625,30.3204 159.5,27C 163.308,24.451 166.975,21.951 170.5,19.5C 181.569,15.9793 191.069,18.6459 199,27.5C 206.705,41.5765 213.872,55.9098 220.5,70.5 Z"/></g>
<g><path style="opacity:1" fill="#366253" d="M 170.5,19.5 C 166.975,21.951 163.308,24.451 159.5,27C 151.625,30.3204 144.125,34.1538 137,38.5C 136.283,37.9558 135.783,37.2891 135.5,36.5C 146.71,30.0626 158.377,24.3959 170.5,19.5 Z"/></g>
<g><path style="opacity:1" fill="#2c9169" d="M 219.5,77.5 C 217.5,78.5 215.5,79.5 213.5,80.5C 212.5,80.5 211.5,80.5 210.5,80.5C 201.68,61.2367 192.18,42.2367 182,23.5C 180.581,22.5399 179.081,21.7065 177.5,21C 182.25,20.7982 186.917,21.4648 191.5,23C 192.167,24.3333 192.833,25.6667 193.5,27C 195.329,27.2735 196.829,28.1068 198,29.5C 201.601,37.7483 205.601,45.7483 210,53.5C 211.608,56.6208 212.441,59.9541 212.5,63.5C 213.5,63.5 214.5,63.5 215.5,63.5C 215.687,65.5643 216.187,67.5643 217,69.5C 219.203,71.6688 220.036,74.3354 219.5,77.5 Z"/></g>
<g><path style="opacity:1" fill="#2a8e68" d="M 153.5,70.5 C 150.028,72.7381 146.362,74.7381 142.5,76.5C 141.5,76.5 140.5,76.5 139.5,76.5C 131.402,80.1737 123.402,83.8404 115.5,87.5C 112.951,87.3874 110.618,88.0541 108.5,89.5C 106.517,87.1901 105.517,84.5235 105.5,81.5C 109.354,81.4055 112.021,79.5722 113.5,76C 129.336,67.2497 145.669,59.2497 162.5,52C 167.443,51.4073 170.776,53.5739 172.5,58.5C 165.978,61.0941 159.645,64.2608 153.5,68C 152.402,68.7697 152.402,69.603 153.5,70.5 Z"/></g>
<g><path style="opacity:1" fill="#184968" d="M 122.5,42.5 C 121.833,42.5 121.5,42.8333 121.5,43.5C 121.167,43.5 120.833,43.5 120.5,43.5C 119.833,43.5 119.5,43.8333 119.5,44.5C 119.167,44.5 118.833,44.5 118.5,44.5C 117.833,44.5 117.5,44.8333 117.5,45.5C 116.609,46.1098 115.609,46.4431 114.5,46.5C 113.833,46.5 113.5,46.8333 113.5,47.5C 113.167,47.5 112.833,47.5 112.5,47.5C 111.508,47.3284 110.842,47.6618 110.5,48.5C 109.833,48.5 109.5,48.8333 109.5,49.5C 108.833,49.5 108.5,49.8333 108.5,50.5C 107.833,51.1667 107.167,51.8333 106.5,52.5C 106.167,51.1667 105.833,51.1667 105.5,52.5C 104.833,52.5 104.5,52.8333 104.5,53.5C 104.573,55.0269 103.906,56.0269 102.5,56.5C 101.833,56.5 101.5,56.8333 101.5,57.5C 101.5,57.8333 101.5,58.1667 101.5,58.5C 100.833,58.5 100.5,58.8333 100.5,59.5C 100.5,59.8333 100.5,60.1667 100.5,60.5C 99.1667,60.8333 99.1667,61.1667 100.5,61.5C 100.167,62.1667 99.8333,62.8333 99.5,63.5C 98.6618,63.8417 98.3284,64.5084 98.5,65.5C 98.5,66.1667 98.5,66.8333 98.5,67.5C 97.596,68.209 97.2627,69.209 97.5,70.5C 96.5,70.5 95.5,70.5 94.5,70.5C 93.5596,67.2857 92.0596,64.2857 90,61.5C 79.8801,66.8098 69.7134,71.9765 59.5,77C 64.9111,86.9886 69.9111,97.1553 74.5,107.5C 75.4178,110.503 76.7511,113.337 78.5,116C 80.3646,117.301 82.3646,117.635 84.5,117C 101.477,109.178 118.143,100.845 134.5,92C 137.758,90.5335 141.092,89.3668 144.5,88.5C 143.416,84.323 141.75,80.323 139.5,76.5C 140.5,76.5 141.5,76.5 142.5,76.5C 144.297,80.771 146.13,85.1043 148,89.5C 149.043,92.7568 149.543,96.0901 149.5,99.5C 149.5,100.167 149.5,100.833 149.5,101.5C 148.596,102.209 148.263,103.209 148.5,104.5C 144.705,110.129 140.039,114.962 134.5,119C 115.782,128.359 97.1149,137.693 78.5,147C 77.7476,147.671 77.4142,148.504 77.5,149.5C 59.5605,152.885 47.8938,145.885 42.5,128.5C 42.369,127.761 42.5357,127.094 43,126.5C 45.951,132.899 49.7844,138.732 54.5,144C 57.2019,145.34 59.8685,146.673 62.5,148C 65.5,148.667 68.5,148.667 71.5,148C 68.0976,146.6 65.2643,144.433 63,141.5C 54.141,123.92 45.4744,106.254 37,88.5C 36.3292,87.7476 35.4959,87.4142 34.5,87.5C 35.0184,86.4226 35.3517,85.2559 35.5,84C 32.0044,73.3677 34.0044,64.0343 41.5,56C 46.0853,54.0688 50.4186,51.7355 54.5,49C 56.1247,48.1475 56.4581,47.1475 55.5,46C 57.0609,45.6824 58.2276,44.8491 59,43.5C 59.3333,44.5 59.6667,45.5 60,46.5C 64.6889,44.1532 69.5222,41.9865 74.5,40C 75.717,38.3523 76.5503,36.519 77,34.5C 77.3076,35.3081 77.8076,35.9747 78.5,36.5C 80.9916,36.1437 83.6583,35.3103 86.5,34C 87.6405,33.2588 87.6405,32.4255 86.5,31.5C 88.1074,29.4177 89.7741,27.9177 91.5,27C 93.6691,28.1138 95.5024,27.6138 97,25.5C 97.3333,26.1667 97.6667,26.8333 98,27.5C 98.6838,26.2161 98.5171,25.0495 97.5,24C 98.0253,23.3076 98.6919,22.8076 99.5,22.5C 100.895,23.8146 101.895,23.4812 102.5,21.5C 93.9922,20.6261 85.9922,22.2928 78.5,26.5C 76.4687,28.5224 74.1354,30.1891 71.5,31.5C 70.7189,32.7287 70.2189,34.062 70,35.5C 69.3333,34.8333 68.6667,34.1667 68,33.5C 66.3181,34.8646 66.1514,36.3646 67.5,38C 66.6919,38.3076 66.0253,38.8076 65.5,39.5C 66.6087,40.9647 66.1087,41.9647 64,42.5C 63.7266,40.8988 63.2266,39.3988 62.5,38C 64.158,37.2747 64.658,36.108 64,34.5C 61.6349,35.2891 59.4682,36.4558 57.5,38C 58.624,38.2492 59.624,38.7492 60.5,39.5C 58.8361,40.2231 57.1694,39.8897 55.5,38.5C 53.8345,40.3329 51.8345,41.6663 49.5,42.5C 44.3712,44.8211 39.0379,46.6544 33.5,48C 29.3996,50.4674 25.5662,53.3007 22,56.5C 18.6657,63.4668 17.6657,70.8001 19,78.5C 21,79.1667 22.3333,80.5 23,82.5C 23.2118,85.2522 24.0452,87.7522 25.5,90C 25.2568,90.9021 24.9234,91.7354 24.5,92.5C 15.4318,80.917 14.2652,68.5837 21,55.5C 24.7176,51.7265 28.8842,48.5599 33.5,46C 51.1966,37.6527 68.8632,28.986 86.5,20C 104.664,15.8233 116.998,22.49 123.5,40C 122.748,40.6708 122.414,41.5041 122.5,42.5 Z"/></g>
<g><path style="opacity:1" fill="#1d634a" d="M 220.5,70.5 C 222.341,72.8485 223.674,75.5152 224.5,78.5C 223.427,79.2506 223.26,80.2506 224,81.5C 228.774,88.9434 229.774,96.9434 227,105.5C 223.147,102.037 219.314,101.87 215.5,105C 217.63,105.967 219.63,107.134 221.5,108.5C 224.317,107.145 225.15,108.145 224,111.5C 222.938,112.899 221.605,113.899 220,114.5C 217.047,112.88 214.38,110.88 212,108.5C 210.989,109.337 209.822,109.67 208.5,109.5C 208.34,111.199 208.506,112.866 209,114.5C 211.468,113.885 213.634,114.718 215.5,117C 213.37,119.914 210.704,120.747 207.5,119.5C 207.709,118.914 208.043,118.414 208.5,118C 206.616,117.784 204.949,117.117 203.5,116C 201.536,115.376 199.869,115.876 198.5,117.5C 200.287,118.316 201.954,119.316 203.5,120.5C 203.833,121.833 204.167,123.167 204.5,124.5C 199.061,128.216 193.394,131.383 187.5,134C 185.5,134.333 183.5,134.667 181.5,135C 180.874,135.75 180.374,136.584 180,137.5C 178.127,136.911 176.46,137.578 175,139.5C 174.667,139.167 174.333,138.833 174,138.5C 168.305,142.674 161.972,145.341 155,146.5C 154.5,146.333 154,146.167 153.5,146C 154.451,145.282 154.617,144.449 154,143.5C 153,143.167 152,142.833 151,142.5C 149.206,144.464 149.706,145.964 152.5,147C 149.147,147.891 146.813,146.725 145.5,143.5C 142.963,144.383 140.297,144.383 137.5,143.5C 142.224,141.8 147.224,140.3 152.5,139C 156.537,137.65 159.87,135.317 162.5,132C 163.993,130.632 165.493,130.465 167,131.5C 168.101,129.606 169.434,128.939 171,129.5C 172.491,127.996 174.324,127.163 176.5,127C 183.569,123.58 190.236,119.58 196.5,115C 208.323,111.672 214.323,103.838 214.5,91.5C 213.154,87.8078 212.82,84.1411 213.5,80.5C 215.5,79.5 217.5,78.5 219.5,77.5C 220.478,77.189 221.145,76.5223 221.5,75.5C 220.691,73.9291 220.357,72.2624 220.5,70.5 Z"/></g>
<g><path style="opacity:1" fill="#226985" d="M 139.5,76.5 C 141.75,80.323 143.416,84.323 144.5,88.5C 141.092,89.3668 137.758,90.5335 134.5,92C 118.143,100.845 101.477,109.178 84.5,117C 82.3646,117.635 80.3646,117.301 78.5,116C 76.7511,113.337 75.4178,110.503 74.5,107.5C 84.96,102.77 95.2934,97.77 105.5,92.5C 109.488,91.8399 112.821,90.1732 115.5,87.5C 123.402,83.8404 131.402,80.1737 139.5,76.5 Z"/></g>
<g><path style="opacity:1" fill="#265647" d="M 224.5,78.5 C 232.592,89.251 233.425,100.584 227,112.5C 223.749,116.422 219.916,119.588 215.5,122C 197.772,130.363 180.106,139.03 162.5,148C 143.503,154.001 130.837,147.501 124.5,128.5C 125.193,127.482 125.859,126.482 126.5,125.5C 127.492,125.672 128.158,125.338 128.5,124.5C 128.833,124.5 129.167,124.5 129.5,124.5C 130.167,124.5 130.5,124.167 130.5,123.5C 131.492,123.672 132.158,123.338 132.5,122.5C 133.492,122.672 134.158,122.338 134.5,121.5C 135.492,121.672 136.158,121.338 136.5,120.5C 137.167,120.5 137.5,120.167 137.5,119.5C 138.492,119.672 139.158,119.338 139.5,118.5C 140.167,118.5 140.5,118.167 140.5,117.5C 141.167,117.5 141.5,117.167 141.5,116.5C 142.167,116.5 142.5,116.167 142.5,115.5C 143.167,115.5 143.5,115.167 143.5,114.5C 144.167,114.5 144.5,114.167 144.5,113.5C 145.167,113.5 145.5,113.167 145.5,112.5C 145.5,112.167 145.5,111.833 145.5,111.5C 146.167,111.5 146.5,111.167 146.5,110.5C 147.338,110.158 147.672,109.492 147.5,108.5C 148.167,108.5 148.5,108.167 148.5,107.5C 148.5,106.833 148.5,106.167 148.5,105.5C 149.434,104.432 149.768,103.099 149.5,101.5C 149.5,100.833 149.5,100.167 149.5,99.5C 150.222,99.0825 150.722,98.4158 151,97.5C 151.414,97.9574 151.914,98.2907 152.5,98.5C 153.703,101.624 155.536,104.291 158,106.5C 164.618,103.11 171.451,100.11 178.5,97.5C 178.631,98.3764 178.298,99.0431 177.5,99.5C 171.718,102.47 166.218,105.803 161,109.5C 159.68,109.201 158.18,109.034 156.5,109C 155.228,107.693 154.228,106.193 153.5,104.5C 153.167,104.667 152.833,104.833 152.5,105C 150.753,109.921 148.086,114.254 144.5,118C 140.531,121.137 136.197,123.637 131.5,125.5C 128.077,128.42 127.744,131.587 130.5,135C 130.167,135.333 129.833,135.667 129.5,136C 131.967,138.73 134.633,141.23 137.5,143.5C 140.297,144.383 142.963,144.383 145.5,143.5C 146.813,146.725 149.147,147.891 152.5,147C 149.706,145.964 149.206,144.464 151,142.5C 152,142.833 153,143.167 154,143.5C 154.617,144.449 154.451,145.282 153.5,146C 154,146.167 154.5,146.333 155,146.5C 161.972,145.341 168.305,142.674 174,138.5C 174.333,138.833 174.667,139.167 175,139.5C 176.46,137.578 178.127,136.911 180,137.5C 180.374,136.584 180.874,135.75 181.5,135C 183.5,134.667 185.5,134.333 187.5,134C 193.394,131.383 199.061,128.216 204.5,124.5C 204.167,123.167 203.833,121.833 203.5,120.5C 201.954,119.316 200.287,118.316 198.5,117.5C 199.869,115.876 201.536,115.376 203.5,116C 204.949,117.117 206.616,117.784 208.5,118C 208.043,118.414 207.709,118.914 207.5,119.5C 210.704,120.747 213.37,119.914 215.5,117C 213.634,114.718 211.468,113.885 209,114.5C 208.506,112.866 208.34,111.199 208.5,109.5C 209.822,109.67 210.989,109.337 212,108.5C 214.38,110.88 217.047,112.88 220,114.5C 221.605,113.899 222.938,112.899 224,111.5C 225.15,108.145 224.317,107.145 221.5,108.5C 219.63,107.134 217.63,105.967 215.5,105C 219.314,101.87 223.147,102.037 227,105.5C 229.774,96.9434 228.774,88.9434 224,81.5C 223.26,80.2506 223.427,79.2506 224.5,78.5 Z"/></g>
<g><path style="opacity:1" fill="#216985" d="M 34.5,87.5 C 35.4959,87.4142 36.3292,87.7476 37,88.5C 45.4744,106.254 54.141,123.92 63,141.5C 65.2643,144.433 68.0976,146.6 71.5,148C 68.5,148.667 65.5,148.667 62.5,148C 59.8685,146.673 57.2019,145.34 54.5,144C 49.7844,138.732 45.951,132.899 43,126.5C 42.5357,127.094 42.369,127.761 42.5,128.5C 36.2614,117.024 30.2614,105.358 24.5,93.5C 27.8691,91.4854 31.2024,89.4854 34.5,87.5 Z"/></g>
<g><path style="opacity:1" fill="#1d3549" d="M 148.5,104.5 C 148.5,104.833 148.5,105.167 148.5,105.5C 147.167,106.167 147.167,106.833 148.5,107.5C 148.5,108.167 148.167,108.5 147.5,108.5C 146.662,108.842 146.328,109.508 146.5,110.5C 145.833,110.5 145.5,110.833 145.5,111.5C 145.5,111.833 145.5,112.167 145.5,112.5C 144.833,112.5 144.5,112.833 144.5,113.5C 143.833,113.5 143.5,113.833 143.5,114.5C 142.833,114.5 142.5,114.833 142.5,115.5C 141.833,115.5 141.5,115.833 141.5,116.5C 140.833,116.5 140.5,116.833 140.5,117.5C 139.833,117.5 139.5,117.833 139.5,118.5C 138.508,118.328 137.842,118.662 137.5,119.5C 136.833,119.5 136.5,119.833 136.5,120.5C 135.508,120.328 134.842,120.662 134.5,121.5C 133.508,121.328 132.842,121.662 132.5,122.5C 131.508,122.328 130.842,122.662 130.5,123.5C 130.5,124.167 130.167,124.5 129.5,124.5C 129.167,123.167 128.833,123.167 128.5,124.5C 127.508,124.328 126.842,124.662 126.5,125.5C 110.008,133.246 93.675,141.246 77.5,149.5C 77.4142,148.504 77.7476,147.671 78.5,147C 97.1149,137.693 115.782,128.359 134.5,119C 140.039,114.962 144.705,110.129 148.5,104.5 Z"/></g>
</g>
</svg>
